HIERARCHY
ROOT root
{
	OFFSET 0.000000 0.000000 0.000000
	CHANNELS 6 Xposition Yposition Zposition Zrotation Yrotation Xrotation
	JOINT lhip
	{
		OFFSET 0.058581 -0.082280 -0.017664
		CHANNELS 3 Zrotation Yrotation Xrotation
		JOINT lknee
		{
			OFFSET 0.043451 -0.386469 0.008037
			CHANNELS 3 Zrotation Yrotation Xrotation
			JOINT lankle
			{
				OFFSET -0.014790 -0.426874 -0.037428
				CHANNELS 3 Zrotation Yrotation Xrotation
				JOINT ltoe
				{
					OFFSET 0.041054 -0.060286 0.122042
					CHANNELS 3 Zrotation Yrotation Xrotation
					End Site
					{
						OFFSET 0.000000 0.000000 0.000000
					}
				}
			}
		}
	}
	JOINT rhip
	{
		OFFSET -0.060310 -0.090513 -0.013543
		CHANNELS 3 Zrotation Yrotation Xrotation
		JOINT rknee
		{
			OFFSET -0.043257 -0.383688 -0.004843
			CHANNELS 3 Zrotation Yrotation Xrotation
			JOINT rankle
			{
				OFFSET 0.019056 -0.420046 -0.034562
				CHANNELS 3 Zrotation Yrotation Xrotation
				JOINT rtoe
				{
					OFFSET -0.034840 -0.062106 0.130323
					CHANNELS 3 Zrotation Yrotation Xrotation
					End Site
					{
						OFFSET 0.000000 0.000000 0.000000
					}
				}
			}
		}
	}
	JOINT lowerback
	{
		OFFSET 0.004439 0.124404 -0.038385
		CHANNELS 3 Zrotation Yrotation Xrotation
		JOINT upperback
		{
			OFFSET 0.004488 0.137956 0.026820
			CHANNELS 3 Zrotation Yrotation Xrotation
			JOINT chest
			{
				OFFSET -0.002265 0.056032 0.002855
				CHANNELS 3 Zrotation Yrotation Xrotation
				JOINT lowerneck
				{
					OFFSET -0.013390 0.211636 -0.033468
					CHANNELS 3 Zrotation Yrotation Xrotation
					JOINT upperneck
					{
						OFFSET 0.010113 0.088937 0.050410
						CHANNELS 3 Zrotation Yrotation Xrotation
						End Site
						{
							OFFSET 0.000000 0.000000 0.000000
						}
					}
				}
				JOINT lclavicle
				{
					OFFSET 0.071702 0.114000 -0.018898
					CHANNELS 3 Zrotation Yrotation Xrotation
					JOINT lshoulder
					{
						OFFSET 0.122921 0.045205 -0.019046
						CHANNELS 3 Zrotation Yrotation Xrotation
						JOINT lelbow
						{
							OFFSET 0.255332 -0.015649 -0.022946
							CHANNELS 3 Zrotation Yrotation Xrotation
							JOINT lwrist
							{
								OFFSET 0.265709 0.012698 -0.007375
								CHANNELS 3 Zrotation Yrotation Xrotation
								End Site
								{
									OFFSET 0.000000 0.000000 0.000000
								}
							}
						}
					}
				}
				JOINT rclavicle
				{
					OFFSET -0.082954 0.112472 -0.023707
					CHANNELS 3 Zrotation Yrotation Xrotation
					JOINT rshoulder
					{
						OFFSET -0.113228 0.046853 -0.008472
						CHANNELS 3 Zrotation Yrotation Xrotation
						JOINT relbow
						{
							OFFSET -0.260127 -0.014369 -0.031269
							CHANNELS 3 Zrotation Yrotation Xrotation
							JOINT rwrist
							{
								OFFSET -0.269108 0.006794 -0.006027
								CHANNELS 3 Zrotation Yrotation Xrotation
								End Site
								{
									OFFSET 0.000000 0.000000 0.000000
								}
							}
						}
					}
				}
			}
		}
	}
}
MOTION
Frames: 11
Frame Time: 0.033333
0.210837 0.801538 1.001692 -97.085303 -1.381016 76.919546 11.217817 -6.131653 -41.910631 -2.333799 17.235522 87.100953 2.717093 7.740003 -23.996313 0.000000 -0.000000 0.000000 0.747583 -2.617572 8.085432 2.219016 5.586931 10.405293 3.875965 -1.762246 -8.485472 0.000000 -0.000000 0.000000 -1.511142 9.887864 18.055112 3.517321 -4.367179 4.366446 -0.339625 -0.987763 6.711707 1.118783 -1.919359 9.121335 4.436056 -3.422302 12.909247 -24.481634 6.064211 4.717337 -61.408396 -1.673488 3.048853 10.448320 -28.834106 6.727084 -4.116637 0.549673 -5.603019 23.250085 -3.518657 0.221982 59.466276 5.424925 7.570123 -19.076474 36.165006 -6.061512 6.743289 -0.356396 -11.964146 
0.196149 0.803367 1.001450 -97.782682 -1.850089 76.782793 12.241093 -5.093825 -45.503622 -1.919259 18.031360 83.783972 2.649382 7.778188 -23.865012 0.000000 -0.000000 0.000000 0.255786 -2.825955 9.274516 2.093862 6.443980 10.524990 3.560543 -1.482928 -9.427822 0.000000 -0.000000 0.000000 -1.717364 10.671248 18.511843 3.272381 -4.345404 4.499588 -0.392413 -0.685814 6.615417 0.899367 -1.887575 9.285008 4.317368 -3.480520 13.186877 -24.977447 6.128625 4.800689 -60.941411 -1.121428 2.320365 10.590288 -27.995988 6.638437 -4.181372 0.792258 -5.452543 23.461851 -2.843465 0.494498 59.282855 6.756276 7.519014 -19.005904 37.066623 -5.641560 6.884669 0.323401 -11.823129 
0.180214 0.804201 1.001025 -98.502834 -2.353893 76.685262 13.021208 -4.515490 -47.416069 -2.199328 19.054042 78.571972 2.432782 7.205848 -23.272274 0.000000 -0.000000 0.000000 -0.327403 -2.817954 10.186914 1.986802 7.008457 11.298377 3.582013 -1.022201 -10.715450 0.000000 -0.000000 0.000000 -1.999948 11.318382 18.612450 3.012165 -4.283098 5.175588 -0.511341 -0.278733 6.279344 0.953675 -1.291681 9.170127 4.247046 -3.936380 13.180381 -25.288071 6.259356 4.320383 -60.671584 -0.373652 2.045239 11.026104 -27.135397 5.870138 -4.503822 0.906577 -5.375304 23.737547 -2.198999 0.407739 59.098875 7.896840 7.950250 -18.778888 37.697766 -5.274007 7.452435 0.354663 -11.557022 
0.168062 0.804898 1.000524 -98.720146 -2.628494 76.599793 13.144055 -4.249457 -47.941906 -2.675138 19.290572 74.239896 2.231144 7.254134 -22.509941 0.000000 -0.000000 0.000000 -0.620871 -2.727753 11.062116 1.888598 7.415914 11.557046 3.636275 -1.038619 -11.661664 0.000000 -0.000000 0.000000 -2.229801 11.634500 18.607334 2.828476 -4.177694 5.405229 -0.552702 -0.203259 6.633787 0.977434 -0.526414 8.976818 4.057263 -3.859386 13.194605 -25.318764 6.456630 3.876198 -60.450033 -0.202617 2.166737 11.027479 -26.584458 5.652682 -4.231157 1.037027 -5.880377 23.963485 -1.759994 0.199405 58.973842 8.851620 8.783570 -18.295193 38.038389 -4.947268 6.466814 0.544671 -11.504084 
0.150992 0.805816 0.999351 -99.070040 -2.845656 76.426798 13.022682 -3.948658 -47.670694 -3.769385 18.896722 69.022039 2.194865 6.876252 -21.401148 0.000000 -0.000000 0.000000 -0.844591 -2.773364 12.096921 1.728541 7.722314 12.364790 2.918786 -1.081783 -13.133940 0.000000 -0.000000 0.000000 -2.432399 11.969894 18.734263 2.568151 -4.061927 5.916860 -0.583137 0.065873 6.105574 0.749927 -0.538027 9.436199 4.028530 -4.172810 13.416397 -25.276941 6.378186 4.011497 -60.409285 0.258690 1.591652 11.349582 -26.107362 5.232223 -4.490091 0.911501 -5.939309 24.017360 -1.107358 0.544502 59.073846 9.651888 8.713430 -17.469521 38.641632 -3.603646 8.510393 0.560684 -11.126051 
0.132565 0.806533 0.997655 -98.979151 -2.794841 76.517144 12.682682 -4.005055 -47.118088 -4.884887 17.970784 64.998190 1.960418 6.529049 -19.997568 0.000000 -0.000000 0.000000 -0.896561 -2.863742 13.257325 1.639437 7.791573 12.599275 2.830473 -1.126063 -14.405658 0.000000 -0.000000 0.000000 -2.598523 12.152404 17.978243 2.478573 -4.067690 6.899266 -0.667917 0.379625 6.289873 0.932374 0.049202 9.162960 3.687786 -4.340458 13.524924 -25.247646 6.219053 3.409546 -60.189041 0.597779 1.964081 11.561449 -26.088509 4.948230 -4.674822 1.224208 -6.403170 24.106293 -0.482089 0.253220 59.241917 10.123791 9.478954 -17.271707 39.880331 -3.188051 9.211848 0.351929 -11.425770 
0.112921 0.806911 0.995742 -99.199782 -2.784723 76.699137 12.461392 -4.167608 -45.993238 -5.578234 17.509209 62.705163 1.641517 6.136702 -18.355869 0.000000 -0.000000 0.000000 -1.028967 -2.762504 14.394532 1.457293 7.633099 12.797433 2.759535 -0.931795 -15.689408 0.000000 -0.000000 0.000000 -2.849727 12.408277 17.713238 2.337342 -3.833608 7.105614 -0.686427 0.721235 5.935332 1.126668 0.333334 9.499734 3.551294 -4.765022 13.649285 -25.158916 6.363674 3.036098 -59.905675 1.157937 2.098929 11.585007 -26.445815 5.080706 -4.962732 1.361775 -6.164080 24.268142 -0.029598 0.457896 59.326146 10.335230 9.908956 -16.597566 40.910257 -2.197167 9.161486 0.409886 -11.917079 
0.087618 0.806602 0.993230 -99.634094 -2.689493 77.545866 12.190958 -4.369448 -44.562468 -6.059442 17.386916 61.302329 1.104641 5.554867 -16.498882 0.000000 -0.000000 0.000000 -1.334307 -2.945635 14.920174 1.429042 7.576260 13.521677 2.819001 -0.548082 -16.414794 0.000000 -0.000000 0.000000 -3.062133 12.901578 16.583597 2.202490 -3.392945 7.634487 -0.928006 0.942958 5.708485 1.409348 0.736512 9.116983 3.367459 -5.087574 13.799954 -25.012639 6.477923 3.001042 -59.409304 1.353700 2.173607 11.726185 -27.521074 4.728700 -5.292772 1.210833 -6.031801 24.356939 0.296231 0.463523 59.773265 10.555852 10.529552 -16.375402 42.046532 -1.369061 10.455756 0.444342 -12.081429 
0.067337 0.805374 0.992197 -99.634193 -2.534697 78.597870 11.474821 -4.699825 -43.194755 -6.238401 17.314359 60.350273 0.688396 5.672747 -15.474433 0.000000 -0.000000 0.000000 -1.572739 -2.976382 14.889155 1.416207 7.069311 13.990027 3.537138 -0.286756 -16.131153 0.000000 -0.000000 0.000000 -3.347050 13.046368 15.723421 2.106525 -3.056901 7.429478 -0.988094 1.185367 5.949188 1.702660 1.020845 8.737080 2.998026 -5.256498 13.517081 -24.877559 6.614379 2.459600 -59.169619 1.185854 2.741116 11.706774 -27.861901 4.661850 -4.729647 1.020068 -6.217051 24.566962 0.391473 0.238726 59.819214 10.813052 11.340059 -16.323965 42.728001 -1.385540 9.487493 0.650526 -12.559304 
0.046355 0.803610 0.992710 -99.820252 -2.211501 79.614899 10.346944 -4.437478 -41.116376 -5.722450 17.028184 58.713587 4.248098 7.634972 -19.128554 0.000000 -0.000000 0.000000 -1.974682 -3.585338 15.347927 1.548977 7.445242 13.694270 3.929495 -0.399080 -14.959416 0.000000 -0.000000 0.000000 -3.172106 13.222657 15.316884 1.718054 -2.542298 6.895986 -1.113518 1.390191 5.923727 1.597381 0.602566 8.148744 3.190476 -5.325962 13.764774 -24.635365 6.488510 2.924503 -58.832909 0.838066 2.484425 11.488917 -28.885383 4.646651 -3.618384 0.890451 -6.170886 24.425602 0.745285 0.673365 60.084578 10.922343 11.459893 -16.073617 42.976486 -1.596138 6.581336 0.955151 -11.683842 
0.026848 0.800361 0.995461 -99.548579 -1.911928 81.128233 9.298417 -4.555731 -41.856276 -5.825834 15.965649 59.910813 5.782007 8.256474 -20.410411 0.000000 -0.000000 0.000000 -2.400720 -3.974996 14.810640 1.672148 7.606010 14.045855 4.936586 0.231227 -13.032084 0.000000 -0.000000 0.000000 -3.113079 13.355252 15.058589 1.431324 -2.321440 5.680949 -1.247517 1.535376 6.265293 1.662796 -0.046850 7.301634 3.310133 -5.523700 14.072095 -24.440147 6.469749 2.593266 -58.493555 0.273737 2.795365 11.143069 -29.269946 5.049952 -3.254948 0.862674 -6.348707 24.000208 0.757584 0.443639 60.416602 10.809514 11.759713 -15.810853 42.777980 -1.426805 7.624731 1.064080 -12.413802 
